<svg xmlns="http://www.w3.org/2000/svg" width="40" height="40" viewBox="0 0 40 40">
  <defs>
    <style>
      .cls-1 {
        fill: #fff;
      }
    </style>
  </defs>
  <path id="i" class="cls-1" d="M64.243,205a2.154,2.154,0,0,1-2.156-2.148V189.3a2.153,2.153,0,0,1,2.156-2.147h13.6A2.153,2.153,0,0,1,80,189.3v13.557A2.154,2.154,0,0,1,77.846,205Zm-22.088,0A2.154,2.154,0,0,1,40,202.852V189.3a2.153,2.153,0,0,1,2.156-2.147h13.6a2.153,2.153,0,0,1,2.155,2.147v13.557A2.154,2.154,0,0,1,55.758,205Zm22.088-22.148a2.153,2.153,0,0,1-2.156-2.147V167.148A2.154,2.154,0,0,1,64.243,165h13.6A2.154,2.154,0,0,1,80,167.148V180.7a2.153,2.153,0,0,1-2.155,2.147Zm-22.088,0A2.153,2.153,0,0,1,40,180.7V167.148A2.154,2.154,0,0,1,42.155,165h13.6a2.154,2.154,0,0,1,2.155,2.148V180.7a2.153,2.153,0,0,1-2.155,2.147Z" transform="translate(-40 -165)"/>
</svg>
