<svg xmlns="http://www.w3.org/2000/svg" width="43.03" height="43" viewBox="0 0 43.03 43">
  <path id="i" d="M43.43,335a.907.907,0,0,1-.9-.772L39,312.4a.913.913,0,0,1,.9-1.048H81.1a.911.911,0,0,1,.9,1.05l-3.532,21.825a.907.907,0,0,1-.9.775ZM46.17,309.92v-2.87H74.9v2.87Zm30.226,0V299.884h-31.6v10.033H41.921v-16.65A1.27,1.27,0,0,1,43.191,292H53.1a1.275,1.275,0,0,1,1.088.616l1.786,2.968H78a1.269,1.269,0,0,1,1.269,1.267v13.066ZM46.89,306.33v-2.15H74.18v2.15Zm.71-2.86v-2.15H73.46v2.15Z" transform="translate(-38.985 -292)" fill="none"/>
</svg>
